Coordinates
nRows=112
nColumns=2
inDegrees=yes
endheader
time	ankle_angle_r	
2.79133	 -0.353808	
2.8629	 -0.358127	
2.93448	 -0.351592	
3.00605	 -0.370191	
3.07762	 -0.397514	
3.14919	 -0.382928	
3.22077	 -0.345063	
3.29234	 -0.359072	
3.36391	 -0.378095	
3.43548	 -0.366046	
3.50706	 -0.366906	
3.57863	 -0.387633	
3.6502	 -0.416224	
3.72177	 -0.386176	
3.79335	 -0.358288	
3.86492	 -0.407722	
3.93649	 -0.429778	
4.00806	 -0.397898	
4.07964	 -0.390275	
4.15121	 -0.427996	
4.22278	 -0.430696	
4.29435	 -0.384252	
4.36593	 -0.385311	
4.4375	 -0.424760	
4.50907	 -0.412066	
4.58065	 -0.378065	
4.65222	 -0.393779	
4.72379	 -0.392218	
4.79536	 -0.358095	
4.86694	 -0.341453	
4.93851	 -0.346417	
5.01008	 -0.385362	
5.08165	 -0.394552	
5.15323	 -0.375205	
5.2248	 -0.402005	
5.29637	 -0.420003	
5.36794	 -0.389775	
5.43952	 -0.380950	
5.51109	 -0.416034	
5.58266	 -0.423340	
5.65423	 -0.388622	
5.72581	 -0.354280	
5.79738	 -0.338148	
5.86895	 -0.331691	
5.94052	 -0.317807	
6.0121	 -0.320633	
6.08367	 -0.333419	
6.15524	 -0.336314	
6.22681	 -0.329994	
6.29839	 -0.326209	
6.36996	 -0.352867	
6.44153	 -0.356172	
6.5131	 -0.330758	
6.58468	 -0.353554	
6.65625	 -0.390717	
6.72782	 -0.370284	
6.7994	 -0.328762	
6.87097	 -0.348388	
6.94254	 -0.381574	
7.01411	 -0.347141	
7.08569	 -0.329645	
7.15726	 -0.385809	
7.22883	 -0.404962	
7.3004	 -0.355172	
7.37198	 -0.357128	
7.44355	 -0.417080	
7.51512	 -0.419920	
7.58669	 -0.376767	
7.65827	 -0.391734	
7.72984	 -0.436514	
7.80141	 -0.415639	
7.87298	 -0.380599	
7.94456	 -0.389699	
8.01613	 -0.420292	
8.0877	 -0.420678	
8.15927	 -0.368368	
8.23085	 -0.372663	
8.30242	 -0.422832	
8.37399	 -0.402265	
8.44556	 -0.359198	
8.51714	 -0.368089	
8.58871	 -0.391443	
8.66028	 -0.380659	
8.73185	 -0.365913	
8.80343	 -0.366823	
8.875	 -0.378905	
8.94657	 -0.382571	
9.01815	 -0.385320	
9.08972	 -0.432422	
9.16129	 -0.443130	
9.23286	 -0.388556	
9.30444	 -0.378739	
9.37601	 -0.424654	
9.44758	 -0.423221	
9.51915	 -0.368839	
9.59073	 -0.380201	
9.6623	 -0.411923	
9.73387	 -0.397009	
9.80544	 -0.383276	
9.87702	 -0.368609	
9.94859	 -0.385699	
10.0202	 -0.381750	
10.0917	 -0.331442	
10.1633	 -0.364553	
10.2349	 -0.429156	
10.3065	 -0.414997	
10.378	 -0.378726	
10.4496	 -0.399381	
10.5212	 -0.439033	
10.5927	 -0.411728	
10.6643	 -0.365804	
10.7359	 -0.381322	
